# xmcd CD database file
#
# Track frame offsets:
#	150
#	14380
#	28182
#	40420
#	52832
#	73182
#	87602
#	100215
#	114925
#	128312
#	148152
#	163020
#	178440
#	190245
#	212837
#
# Disc length: 3051 seconds
#
# Revision: 2
# Processed by: cddbd v1.4PL0 Copyright (c) Steve Scherf et al.
# Submitted via: CDex 1.40Release
#
DISCID=d90be90f
DTITLE=Lou Rawls - Portrait of The Blues
DYEAR=1993
DGENRE=Blues
TTITLE0=I Just Want To Make Love To You
TTITLE1=A Lover's Question
TTITLE2=Person To Person
TTITLE3=Since I Met You Baby
TTITLE4=I'm Still In Love With You
TTITLE5=Snap Your Fingers
TTITLE6=Baby, What You ant Me To Do?
TTITLE7=Suffering with the Blues
TTITLE8=Hide Nor Hair
TTITLE9=Chains Of Love
TTITLE10=My Babe
TTITLE11=I Ain't Got Nothin' But The Blues
TTITLE12=Save Your Love For Me
TTITLE13=Saturday Night Fish Fry
TTITLE14=Sweet Slumber
EXTD=YEAR: 1993 ID3G: 0
EXTT0=
EXTT1=W/ Phoebe Snow\n
EXTT2=Hank Crawford - Alto Sax Solos\n
EXTT3=
EXTT4=
EXTT5=
EXTT6=
EXTT7=
EXTT8=
EXTT9=
EXTT10=
EXTT11=
EXTT12=
EXTT13=
EXTT14=
PLAYORDER=
